<svg width="239" height="72" viewBox="0 0 239 72" fill="none" xmlns="http://www.w3.org/2000/svg">
<rect x="1" y="1" width="236.833" height="70" rx="8" fill="white" stroke="#EE7B44"/>
<path fill-rule="evenodd" clip-rule="evenodd" d="M60.997 34.4041C60.955 29.3921 65.099 26.9561 65.281 26.8441C62.929 23.4281 59.289 22.9521 58.015 22.9101C54.963 22.5881 51.995 24.7441 50.441 24.7441C48.859 24.7441 46.451 22.9521 43.875 22.9941C40.557 23.0501 37.435 24.9681 35.741 27.9641C32.227 34.0541 34.845 43.0141 38.219 47.9421C39.913 50.3501 41.873 53.0521 44.463 52.9541C46.983 52.8561 47.935 51.3441 50.973 51.3441C53.997 51.3441 54.879 52.9541 57.511 52.8981C60.227 52.8561 61.921 50.4761 63.559 48.0401C65.505 45.2821 66.289 42.5521 66.317 42.4121C66.247 42.3841 61.053 40.3961 60.997 34.4041Z" fill="#042A2B"/>
<path fill-rule="evenodd" clip-rule="evenodd" d="M56.0272 19.6761C57.3852 17.9821 58.3092 15.6721 58.0572 13.3201C56.0972 13.4041 53.6332 14.6781 52.2192 16.3441C50.9732 17.8141 49.8532 20.2081 50.1332 22.4621C52.3452 22.6301 54.6132 21.3421 56.0272 19.6761Z" fill="#042A2B"/>
<path fill-rule="evenodd" clip-rule="evenodd" d="M91.531 43.9802L89.781 38.5902C89.599 38.0302 89.249 36.7422 88.745 34.6982H88.675C88.465 35.5802 88.143 36.8822 87.695 38.5902L85.973 43.9802H91.531ZM97.5651 52.604H94.0371L92.1051 46.528H85.3851L83.5511 52.604H80.1211L86.7711 31.926H90.8871L97.5651 52.604Z" fill="#042A2B"/>
<path fill-rule="evenodd" clip-rule="evenodd" d="M111.285 45.0859C111.285 43.6299 110.963 42.4399 110.305 41.5019C109.591 40.5219 108.625 40.0319 107.421 40.0319C106.609 40.0319 105.867 40.3119 105.195 40.8439C104.537 41.3899 104.089 42.0899 103.893 42.9719C103.795 43.3779 103.739 43.7139 103.739 43.9799V46.4719C103.739 47.5499 104.075 48.4739 104.733 49.2159C105.391 49.9579 106.259 50.3359 107.323 50.3359C108.569 50.3359 109.535 49.8459 110.235 48.8939C110.935 47.9279 111.285 46.6679 111.285 45.0859ZM114.659 44.974C114.659 47.508 113.973 49.51 112.587 50.98C111.355 52.296 109.815 52.94 107.995 52.94C106.021 52.94 104.607 52.24 103.739 50.826V58.652H100.421V42.594C100.421 40.998 100.379 39.374 100.295 37.694H103.207L103.389 40.06H103.445C104.551 38.282 106.231 37.386 108.471 37.386C110.235 37.386 111.691 38.086 112.867 39.472C114.071 40.872 114.659 42.692 114.659 44.974Z" fill="#042A2B"/>
<path fill-rule="evenodd" clip-rule="evenodd" d="M128.421 45.0859C128.421 43.6299 128.099 42.4399 127.441 41.5019C126.727 40.5219 125.761 40.0319 124.557 40.0319C123.745 40.0319 123.003 40.3119 122.331 40.8439C121.673 41.3899 121.239 42.0899 121.029 42.9719C120.931 43.3779 120.875 43.7139 120.875 43.9799V46.4719C120.875 47.5499 121.211 48.4739 121.869 49.2159C122.527 49.9579 123.395 50.3359 124.459 50.3359C125.705 50.3359 126.685 49.8459 127.371 48.8939C128.085 47.9279 128.421 46.6679 128.421 45.0859ZM131.795 44.974C131.795 47.508 131.109 49.51 129.723 50.98C128.491 52.296 126.951 52.94 125.131 52.94C123.157 52.94 121.743 52.24 120.875 50.826V58.652H117.557V42.594C117.557 40.998 117.515 39.374 117.431 37.694H120.343L120.525 40.06H120.581C121.687 38.282 123.367 37.386 125.607 37.386C127.371 37.386 128.827 38.086 130.003 39.472C131.207 40.872 131.795 42.692 131.795 44.974Z" fill="#042A2B"/>
<path fill-rule="evenodd" clip-rule="evenodd" d="M150.975 46.808C150.975 48.572 150.359 50 149.141 51.106C147.797 52.31 145.921 52.912 143.513 52.912C141.287 52.912 139.509 52.478 138.165 51.624L138.935 48.866C140.391 49.72 141.987 50.154 143.723 50.154C144.969 50.154 145.949 49.874 146.635 49.314C147.335 48.754 147.685 47.998 147.685 47.06C147.685 46.22 147.391 45.52 146.831 44.946C146.257 44.372 145.305 43.84 143.975 43.35C140.321 41.992 138.515 40.018 138.515 37.428C138.515 35.734 139.159 34.348 140.433 33.256C141.707 32.178 143.401 31.632 145.515 31.632C147.391 31.632 148.959 31.954 150.205 32.612L149.365 35.3C148.189 34.67 146.873 34.348 145.389 34.348C144.227 34.348 143.303 34.642 142.645 35.202C142.099 35.72 141.819 36.336 141.819 37.078C141.819 37.89 142.141 38.576 142.771 39.094C143.317 39.584 144.325 40.116 145.781 40.69C147.559 41.404 148.861 42.244 149.701 43.21C150.555 44.176 150.975 45.38 150.975 46.808Z" fill="#042A2B"/>
<path fill-rule="evenodd" clip-rule="evenodd" d="M161.951 40.186H158.297V47.424C158.297 49.258 158.941 50.182 160.229 50.182C160.817 50.182 161.307 50.126 161.699 50.028L161.797 52.548C161.139 52.786 160.285 52.912 159.221 52.912C157.905 52.912 156.897 52.506 156.155 51.708C155.413 50.91 155.049 49.566 155.049 47.69V40.172H152.879V37.694H155.049V34.964L158.297 33.984V37.694H161.951V40.186Z" fill="#042A2B"/>
<path fill-rule="evenodd" clip-rule="evenodd" d="M174.957 45.1C174.957 43.728 174.663 42.566 174.075 41.586C173.375 40.396 172.381 39.808 171.093 39.808C169.763 39.808 168.741 40.396 168.055 41.586C167.453 42.566 167.173 43.756 167.173 45.17C167.173 46.542 167.467 47.718 168.055 48.684C168.769 49.874 169.777 50.462 171.065 50.462C172.325 50.462 173.319 49.86 174.047 48.656C174.649 47.648 174.957 46.472 174.957 45.1ZM178.387 45.0299C178.387 47.3259 177.729 49.2019 176.427 50.6719C175.055 52.1839 173.235 52.9399 170.967 52.9399C168.783 52.9399 167.033 52.2119 165.731 50.7699C164.429 49.3279 163.785 47.4939 163.785 45.2819C163.785 42.9719 164.457 41.0819 165.787 39.6119C167.131 38.1419 168.937 37.3999 171.205 37.3999C173.389 37.3999 175.153 38.1279 176.483 39.5839C177.757 40.9839 178.387 42.8039 178.387 45.0299Z" fill="#042A2B"/>
<path fill-rule="evenodd" clip-rule="evenodd" d="M189.167 40.606C188.845 40.55 188.495 40.522 188.117 40.522C186.955 40.522 186.045 40.956 185.415 41.838C184.869 42.608 184.589 43.602 184.589 44.778V52.604H181.271V42.384C181.271 40.662 181.243 39.094 181.173 37.694H184.057L184.183 40.55H184.281C184.631 39.57 185.177 38.772 185.933 38.184C186.675 37.652 187.473 37.386 188.327 37.386C188.635 37.386 188.915 37.414 189.153 37.442L189.167 40.606Z" fill="#042A2B"/>
<path fill-rule="evenodd" clip-rule="evenodd" d="M200.815 43.5881C200.843 42.6081 200.619 41.7541 200.171 41.0401C199.597 40.1161 198.715 39.6541 197.539 39.6541C196.461 39.6541 195.579 40.1021 194.907 40.9981C194.361 41.7121 194.025 42.5801 193.927 43.5741L200.815 43.5881ZM203.979 44.442C203.979 45.03 203.937 45.534 203.853 45.94H193.913C193.955 47.41 194.431 48.544 195.355 49.314C196.195 50 197.273 50.35 198.603 50.35C200.073 50.35 201.417 50.112 202.621 49.65L203.139 51.946C201.725 52.562 200.059 52.87 198.141 52.87C195.831 52.87 194.011 52.184 192.695 50.826C191.379 49.468 190.721 47.634 190.721 45.352C190.721 43.112 191.337 41.236 192.569 39.738C193.857 38.142 195.593 37.344 197.777 37.344C199.919 37.344 201.557 38.142 202.649 39.738C203.531 41.026 203.979 42.58 203.979 44.442Z" fill="#042A2B"/>
<mask id="mask0_365_1462" style="mask-type:alpha" maskUnits="userSpaceOnUse" x="1" y="1" width="237" height="70">
<path fill-rule="evenodd" clip-rule="evenodd" d="M1 71H237.25V1H1V71Z" fill="white"/>
</mask>
<g mask="url(#mask0_365_1462)">
</g>
<path d="M78.6 16.94H76.99C76.39 17.57 75.87 17.81 75.16 17.81C73.8 17.81 72.68 16.67 72.68 15.29C72.68 13.9 73.72 12.8 75.13 12.8C75.99 12.8 76.57 13.08 77.07 13.73H78.6C77.95 12.3 76.62 11.48 75.1 11.48C73.01 11.48 71.3 13.19 71.3 15.28C71.3 17.41 73.03 19.13 75.19 19.13C76.7 19.13 78.02 18.29 78.6 16.94ZM86.9927 16.27C86.9927 14.62 85.7027 13.33 84.0327 13.33C82.4227 13.33 81.1027 14.64 81.1027 16.23C81.1027 17.83 82.4227 19.13 84.0427 19.13C85.6527 19.13 86.9927 17.83 86.9927 16.27ZM85.6527 16.23C85.6527 17.16 84.9327 17.91 84.0527 17.91C83.1527 17.91 82.4427 17.16 82.4427 16.21C82.4427 15.3 83.1727 14.55 84.0427 14.55C84.9327 14.55 85.6527 15.31 85.6527 16.23ZM98.0492 19V15.8C98.0492 14.14 97.2692 13.33 95.8092 13.33C95.0292 13.33 94.4792 13.59 94.0292 14.19C93.6492 13.59 93.1592 13.33 92.3992 13.33C91.7492 13.33 91.3492 13.51 90.9592 13.98V13.46H89.7392V19H91.0692V16.27C91.0692 14.96 91.3792 14.55 92.1492 14.55C92.8492 14.55 93.2292 14.87 93.2292 15.96V19H94.5592V16.27C94.5592 14.95 94.9392 14.55 95.6792 14.55C96.2992 14.55 96.7192 14.85 96.7192 15.96V19H98.0492ZM102.474 19V13.46H101.144V19H102.474ZM102.484 12.66V11.33H101.154V12.66H102.484ZM110.466 19V16.03C110.466 15.04 110.366 14.56 110.066 14.13C109.706 13.61 109.106 13.33 108.336 13.33C107.706 13.33 107.266 13.52 106.776 13.99V13.46H105.546V19H106.876V16.39C106.876 15.65 106.926 15.33 107.096 15.06C107.306 14.73 107.656 14.55 108.076 14.55C108.736 14.55 109.136 14.81 109.136 16.29V19H110.466ZM119.112 17.95V13.46H117.842V14.16C117.432 13.6 116.832 13.33 116.032 13.33C114.462 13.33 113.302 14.55 113.302 16.19C113.302 17.9 114.442 19.13 116.022 19.13C116.802 19.13 117.322 18.88 117.842 18.27C117.792 19.46 117.282 20.04 116.292 20.04C115.672 20.04 115.292 19.88 114.902 19.45H113.392C113.842 20.56 114.882 21.21 116.242 21.21C117.962 21.21 119.112 20.33 119.112 17.95ZM117.782 16.25C117.782 17.25 117.152 17.91 116.202 17.91C115.252 17.91 114.642 17.26 114.642 16.25C114.642 15.23 115.252 14.55 116.182 14.55C117.132 14.55 117.782 15.24 117.782 16.25ZM130.606 17.24C130.606 16.42 130.226 15.98 129.066 15.62C128.156 15.33 128.126 15.31 128.126 15.02C128.126 14.75 128.346 14.55 128.636 14.55C128.916 14.55 129.096 14.7 129.156 14.99H130.456C130.406 13.95 129.576 13.33 128.636 13.33C127.606 13.33 126.796 14.07 126.796 15.02C126.796 15.83 127.236 16.29 128.336 16.66C129.226 16.96 129.276 17.05 129.276 17.37C129.276 17.68 129.016 17.91 128.676 17.91C128.286 17.91 128.066 17.71 127.936 17.24H126.596C126.736 18.53 127.526 19.13 128.626 19.13C129.736 19.13 130.606 18.3 130.606 17.24ZM139.001 16.27C139.001 14.62 137.711 13.33 136.041 13.33C134.431 13.33 133.111 14.64 133.111 16.23C133.111 17.83 134.431 19.13 136.051 19.13C137.661 19.13 139.001 17.83 139.001 16.27ZM137.661 16.23C137.661 17.16 136.941 17.91 136.061 17.91C135.161 17.91 134.451 17.16 134.451 16.21C134.451 15.3 135.181 14.55 136.051 14.55C136.941 14.55 137.661 15.31 137.661 16.23ZM147.397 16.27C147.397 14.62 146.107 13.33 144.437 13.33C142.827 13.33 141.507 14.64 141.507 16.23C141.507 17.83 142.827 19.13 144.447 19.13C146.057 19.13 147.397 17.83 147.397 16.27ZM146.057 16.23C146.057 17.16 145.337 17.91 144.457 17.91C143.557 17.91 142.847 17.16 142.847 16.21C142.847 15.3 143.577 14.55 144.447 14.55C145.337 14.55 146.057 15.31 146.057 16.23ZM155.064 19V16.03C155.064 15.04 154.964 14.56 154.664 14.13C154.304 13.61 153.704 13.33 152.934 13.33C152.304 13.33 151.864 13.52 151.374 13.99V13.46H150.144V19H151.474V16.39C151.474 15.65 151.524 15.33 151.694 15.06C151.904 14.73 152.254 14.55 152.674 14.55C153.334 14.55 153.734 14.81 153.734 16.29V19H155.064Z" fill="#042A2B"/>
</svg>
