<svg width="237" height="70" viewBox="0 0 237 70" fill="none" xmlns="http://www.w3.org/2000/svg">
<mask id="mask0_365_1488" style="mask-type:alpha" maskUnits="userSpaceOnUse" x="0" y="0" width="237" height="70">
<path fill-rule="evenodd" clip-rule="evenodd" d="M0 0H236.25V69.9999H0V0Z" fill="white"/>
</mask>
<g mask="url(#mask0_365_1488)">
<path fill-rule="evenodd" clip-rule="evenodd" d="M227.5 70H8.75C3.85 70 0 66.15 0 61.25V8.75C0 3.85 3.85 0 8.75 0H227.5C232.4 0 236.25 3.85 236.25 8.75V61.25C236.25 66.15 232.4 70 227.5 70Z" fill="#042A2B"/>
</g>
<mask id="mask1_365_1488" style="mask-type:alpha" maskUnits="userSpaceOnUse" x="0" y="0" width="237" height="70">
<path fill-rule="evenodd" clip-rule="evenodd" d="M0 70H236.25V0H0V70Z" fill="white"/>
</mask>
<g mask="url(#mask1_365_1488)">
<path fill-rule="evenodd" clip-rule="evenodd" d="M187.075 52.5H190.4V30.625H187.075V52.5ZM216.475 38.5L212.8 47.95H212.625L208.775 38.5H205.275L211.05 51.8L207.725 59.15H211.05L219.975 38.5H216.475ZM198.1 50.0501C197.05 50.0501 195.475 49.5251 195.475 48.1251C195.475 46.3751 197.4 45.8501 198.975 45.8501C200.375 45.8501 201.075 46.2001 201.95 46.5501C201.6 48.6501 199.85 50.0501 198.1 50.0501ZM198.45 37.9751C196 37.9751 193.55 39.0251 192.675 41.3001L195.65 42.5251C196.35 41.3001 197.4 40.9501 198.625 40.9501C200.375 40.9501 201.95 42.0001 202.125 43.7501V43.9251C201.6 43.5751 200.2 43.0501 198.8 43.0501C195.65 43.0501 192.5 44.8001 192.5 47.9501C192.5 50.9251 195.125 52.8501 197.925 52.8501C200.2 52.8501 201.25 51.8001 202.125 50.7501H202.3V52.5001H205.45V44.1001C205.1 40.2501 202.125 37.9751 198.45 37.9751ZM178.325 41.1251H173.6V33.6001H178.325C180.775 33.6001 182.175 35.7001 182.175 37.2751C182 39.2001 180.6 41.1251 178.325 41.1251ZM178.15 30.625H170.275V52.5H173.6V44.275H178.15C181.825 44.275 185.325 41.65 185.325 37.45C185.325 33.25 181.825 30.625 178.15 30.625ZM135.45 50.0499C133.175 50.0499 131.25 48.1249 131.25 45.4999C131.25 42.8749 133.175 40.9499 135.45 40.9499C137.725 40.9499 139.475 42.8749 139.475 45.4999C139.475 48.1249 137.725 50.0499 135.45 50.0499ZM139.3 39.7251C138.425 38.8501 137.025 37.9751 135.275 37.9751C131.6 37.9751 128.1 41.3001 128.1 45.5001C128.1 49.7001 131.425 52.8501 135.275 52.8501C137.025 52.8501 138.425 51.9751 139.125 51.1001H139.3V52.1501C139.3 54.9501 137.725 56.5251 135.275 56.5251C133.35 56.5251 131.95 55.1251 131.6 53.9001L128.8 55.1251C129.675 57.0501 131.775 59.5001 135.45 59.5001C139.3 59.5001 142.45 57.2251 142.45 51.8001V38.5001H139.3V39.7251ZM144.55 52.5H147.875V30.625H144.55V52.5ZM152.775 45.3249C152.775 42.5249 155.05 40.9499 156.625 40.9499C157.85 40.9499 159.075 41.6499 159.425 42.5249L152.775 45.3249ZM162.925 42.8752C162.225 41.1252 160.475 38.1502 156.625 38.1502C152.775 38.1502 149.625 41.1252 149.625 45.6752C149.625 49.8752 152.775 53.2002 156.975 53.2002C160.3 53.2002 162.4 51.1002 163.1 49.8752L160.65 48.1252C159.775 49.3502 158.725 50.2252 156.975 50.2252C155.225 50.2252 154.175 49.5252 153.3 47.9502L163.275 43.7502L162.925 42.8752ZM83.4753 40.425V43.575H91.0003C90.8253 45.325 90.1253 46.725 89.2503 47.6C88.2003 48.65 86.4503 49.875 83.4753 49.875C78.7503 49.875 75.2503 46.2 75.2503 41.475C75.2503 36.75 78.9253 33.075 83.4753 33.075C85.9253 33.075 87.8503 34.125 89.2503 35.35L91.5253 33.075C89.6003 31.325 87.1503 29.925 83.6503 29.925C77.3503 29.925 71.9253 35.175 71.9253 41.475C71.9253 47.775 77.3503 53.025 83.6503 53.025C87.1503 53.025 89.6003 51.975 91.7003 49.7C93.8003 47.6 94.5003 44.625 94.5003 42.35C94.5003 41.65 94.5003 40.95 94.3253 40.425H83.4753ZM102.9 50.0499C100.625 50.0499 98.7003 48.1249 98.7003 45.4999C98.7003 42.8749 100.625 40.9499 102.9 40.9499C105.175 40.9499 107.1 42.6999 107.1 45.4999C107.1 48.1249 105.175 50.0499 102.9 50.0499ZM102.9 38.1502C98.7002 38.1502 95.3752 41.3002 95.3752 45.6752C95.3752 49.8752 98.7002 53.2002 102.9 53.2002C107.1 53.2002 110.425 50.0502 110.425 45.6752C110.425 41.1252 107.1 38.1502 102.9 38.1502ZM119.175 50.0499C116.9 50.0499 114.975 48.1249 114.975 45.4999C114.975 42.8749 116.9 40.9499 119.175 40.9499C121.45 40.9499 123.375 42.6999 123.375 45.4999C123.375 48.1249 121.45 50.0499 119.175 50.0499ZM119.175 38.1502C114.975 38.1502 111.65 41.3002 111.65 45.6752C111.65 49.8752 114.975 53.2002 119.175 53.2002C123.375 53.2002 126.7 50.0502 126.7 45.6752C126.7 41.1252 123.375 38.1502 119.175 38.1502Z" fill="white"/>
</g>
<mask id="mask2_365_1488" style="mask-type:alpha" maskUnits="userSpaceOnUse" x="17" y="13" width="24" height="44">
<path fill-rule="evenodd" clip-rule="evenodd" d="M17.5 15.5746V54.2496C17.5 55.3 17.85 56.1746 18.375 56.6996L18.55 56.875L40.25 35.175V34.8246L18.2 13.125C17.675 13.6496 17.5 14.5246 17.5 15.5746Z" fill="white"/>
</mask>
<g mask="url(#mask2_365_1488)">
<path fill-rule="evenodd" clip-rule="evenodd" d="M17.5 15.5746V54.2496C17.5 55.3 17.85 56.1746 18.375 56.6996L18.55 56.875L40.25 35.175V34.8246L18.2 13.125C17.675 13.6496 17.5 14.5246 17.5 15.5746Z" fill="#32BBFF"/>
</g>
<mask id="mask3_365_1488" style="mask-type:alpha" maskUnits="userSpaceOnUse" x="40" y="27" width="18" height="16">
<path fill-rule="evenodd" clip-rule="evenodd" d="M40.0747 34.8244V35.3494L47.2497 42.5244L55.9997 37.7994C58.4497 36.3994 58.4497 34.1244 55.9997 32.724L47.4247 27.8244L47.2497 27.649L40.0747 34.8244Z" fill="white"/>
</mask>
<g mask="url(#mask3_365_1488)">
<path fill-rule="evenodd" clip-rule="evenodd" d="M40.0747 34.8244V35.3494L47.2497 42.5244L55.9997 37.7994C58.4497 36.3994 58.4497 34.1244 55.9997 32.724L47.4247 27.8244L47.2497 27.649L40.0747 34.8244Z" fill="#FFD500"/>
</g>
<mask id="mask4_365_1488" style="mask-type:alpha" maskUnits="userSpaceOnUse" x="18" y="35" width="30" height="23">
<path fill-rule="evenodd" clip-rule="evenodd" d="M18.1997 56.8753C19.0747 57.75 20.2997 57.75 21.8747 57.05L47.4247 42.35L40.0747 35L18.1997 56.8753Z" fill="white"/>
</mask>
<g mask="url(#mask4_365_1488)">
<path fill-rule="evenodd" clip-rule="evenodd" d="M18.1997 56.8753C19.0747 57.75 20.2997 57.75 21.8747 57.05L47.4247 42.35L40.0747 35L18.1997 56.8753Z" fill="url(#paint0_linear_365_1488)"/>
</g>
<mask id="mask5_365_1488" style="mask-type:alpha" maskUnits="userSpaceOnUse" x="18" y="12" width="30" height="23">
<path fill-rule="evenodd" clip-rule="evenodd" d="M18.1997 13.2999L40.0747 34.9999L47.4247 27.6499L21.8747 13.1252C21.1649 12.7308 20.5265 12.5498 19.9592 12.5498C19.2669 12.5495 18.6806 12.819 18.1997 13.2999Z" fill="white"/>
</mask>
<g mask="url(#mask5_365_1488)">
<path fill-rule="evenodd" clip-rule="evenodd" d="M18.1997 13.2999L40.0747 34.9999L47.4247 27.6499L21.8747 13.1252C21.1649 12.7308 20.5265 12.5498 19.9592 12.5498C19.2669 12.5495 18.6806 12.819 18.1997 13.2999Z" fill="#29CC5E"/>
</g>
<path fill-rule="evenodd" clip-rule="evenodd" d="M47.2497 42.175L21.8747 56.525C20.4747 57.4 19.2497 57.225 18.3747 56.525L18.1997 56.7L18.3747 56.875C19.2497 57.575 20.4747 57.75 21.8747 56.875L47.2497 42.175Z" fill="#042A2B"/>
<path fill-rule="evenodd" clip-rule="evenodd" d="M56 37.2749L47.25 42.1749L47.425 42.3499L56 37.4499C57.225 36.7499 57.75 35.8749 57.75 34.9999C57.75 35.8749 57.05 36.5749 56 37.2749ZM18.2 56.5248C17.675 55.9998 17.5 55.1248 17.5 54.0748V54.2498C17.5 55.2998 17.85 56.1748 18.375 56.6998V56.5248H18.2Z" fill="#042A2B"/>
<path fill-rule="evenodd" clip-rule="evenodd" d="M21.875 13.2999L56 32.7249C57.05 33.4249 57.75 34.1249 57.75 34.9999C57.75 34.1249 57.225 33.2499 56 32.5499L21.875 13.1249C19.425 11.7249 17.5 12.7749 17.5 15.5749V15.7499C17.5 13.1249 19.425 11.8999 21.875 13.2999Z" fill="white"/>
<path d="M69.6 15.94H67.99C67.39 16.57 66.87 16.81 66.16 16.81C64.8 16.81 63.68 15.67 63.68 14.29C63.68 12.9 64.72 11.8 66.13 11.8C66.99 11.8 67.57 12.08 68.07 12.73H69.6C68.95 11.3 67.62 10.48 66.1 10.48C64.01 10.48 62.3 12.19 62.3 14.28C62.3 16.41 64.03 18.13 66.19 18.13C67.7 18.13 69.02 17.29 69.6 15.94ZM77.9927 15.27C77.9927 13.62 76.7027 12.33 75.0327 12.33C73.4227 12.33 72.1027 13.64 72.1027 15.23C72.1027 16.83 73.4227 18.13 75.0427 18.13C76.6527 18.13 77.9927 16.83 77.9927 15.27ZM76.6527 15.23C76.6527 16.16 75.9327 16.91 75.0527 16.91C74.1527 16.91 73.4427 16.16 73.4427 15.21C73.4427 14.3 74.1727 13.55 75.0427 13.55C75.9327 13.55 76.6527 14.31 76.6527 15.23ZM89.0492 18V14.8C89.0492 13.14 88.2692 12.33 86.8092 12.33C86.0292 12.33 85.4792 12.59 85.0292 13.19C84.6492 12.59 84.1592 12.33 83.3992 12.33C82.7492 12.33 82.3492 12.51 81.9592 12.98V12.46H80.7392V18H82.0692V15.27C82.0692 13.96 82.3792 13.55 83.1492 13.55C83.8492 13.55 84.2292 13.87 84.2292 14.96V18H85.5592V15.27C85.5592 13.95 85.9392 13.55 86.6792 13.55C87.2992 13.55 87.7192 13.85 87.7192 14.96V18H89.0492ZM93.4735 18V12.46H92.1435V18H93.4735ZM93.4835 11.66V10.33H92.1535V11.66H93.4835ZM101.466 18V15.03C101.466 14.04 101.366 13.56 101.066 13.13C100.706 12.61 100.106 12.33 99.3359 12.33C98.7059 12.33 98.2659 12.52 97.7759 12.99V12.46H96.5459V18H97.8759V15.39C97.8759 14.65 97.9259 14.33 98.0959 14.06C98.3059 13.73 98.6559 13.55 99.0759 13.55C99.7359 13.55 100.136 13.81 100.136 15.29V18H101.466ZM110.112 16.95V12.46H108.842V13.16C108.432 12.6 107.832 12.33 107.032 12.33C105.462 12.33 104.302 13.55 104.302 15.19C104.302 16.9 105.442 18.13 107.022 18.13C107.802 18.13 108.322 17.88 108.842 17.27C108.792 18.46 108.282 19.04 107.292 19.04C106.672 19.04 106.292 18.88 105.902 18.45H104.392C104.842 19.56 105.882 20.21 107.242 20.21C108.962 20.21 110.112 19.33 110.112 16.95ZM108.782 15.25C108.782 16.25 108.152 16.91 107.202 16.91C106.252 16.91 105.642 16.26 105.642 15.25C105.642 14.23 106.252 13.55 107.182 13.55C108.132 13.55 108.782 14.24 108.782 15.25ZM121.606 16.24C121.606 15.42 121.226 14.98 120.066 14.62C119.156 14.33 119.126 14.31 119.126 14.02C119.126 13.75 119.346 13.55 119.636 13.55C119.916 13.55 120.096 13.7 120.156 13.99H121.456C121.406 12.95 120.576 12.33 119.636 12.33C118.606 12.33 117.796 13.07 117.796 14.02C117.796 14.83 118.236 15.29 119.336 15.66C120.226 15.96 120.276 16.05 120.276 16.37C120.276 16.68 120.016 16.91 119.676 16.91C119.286 16.91 119.066 16.71 118.936 16.24H117.596C117.736 17.53 118.526 18.13 119.626 18.13C120.736 18.13 121.606 17.3 121.606 16.24ZM130.001 15.27C130.001 13.62 128.711 12.33 127.041 12.33C125.431 12.33 124.111 13.64 124.111 15.23C124.111 16.83 125.431 18.13 127.051 18.13C128.661 18.13 130.001 16.83 130.001 15.27ZM128.661 15.23C128.661 16.16 127.941 16.91 127.061 16.91C126.161 16.91 125.451 16.16 125.451 15.21C125.451 14.3 126.181 13.55 127.051 13.55C127.941 13.55 128.661 14.31 128.661 15.23ZM138.397 15.27C138.397 13.62 137.107 12.33 135.437 12.33C133.827 12.33 132.507 13.64 132.507 15.23C132.507 16.83 133.827 18.13 135.447 18.13C137.057 18.13 138.397 16.83 138.397 15.27ZM137.057 15.23C137.057 16.16 136.337 16.91 135.457 16.91C134.557 16.91 133.847 16.16 133.847 15.21C133.847 14.3 134.577 13.55 135.447 13.55C136.337 13.55 137.057 14.31 137.057 15.23ZM146.064 18V15.03C146.064 14.04 145.964 13.56 145.664 13.13C145.304 12.61 144.704 12.33 143.934 12.33C143.304 12.33 142.864 12.52 142.374 12.99V12.46H141.144V18H142.474V15.39C142.474 14.65 142.524 14.33 142.694 14.06C142.904 13.73 143.254 13.55 143.674 13.55C144.334 13.55 144.734 13.81 144.734 15.29V18H146.064Z" fill="white"/>
<defs>
<linearGradient id="paint0_linear_365_1488" x1="17.6248" y1="23.6294" x2="-10.3144" y2="70.5364" gradientUnits="userSpaceOnUse">
<stop stop-color="#FF3A44"/>
<stop offset="1" stop-color="#C31162"/>
</linearGradient>
</defs>
</svg>
